<?xml version="1.0" standalone="no"?>
<!DOCTYPE svg PUBLIC "-//W3C//DTD SVG 20010904//EN"
 "http://www.w3.org/TR/2001/REC-SVG-20010904/DTD/svg10.dtd">
<svg version="1.0" xmlns="http://www.w3.org/2000/svg"
 width="512.000000pt" height="512.000000pt" viewBox="0 0 512.000000 512.000000"
 preserveAspectRatio="xMidYMid meet">
<metadata>
Created by potrace 1.16, written by Peter Selinger 2001-2019
</metadata>
<g transform="translate(0.000000,512.000000) scale(0.100000,-0.100000)"
fill="#000000" stroke="none">
<path d="M4080 4678 c-173 -231 -316 -425 -318 -429 -2 -5 69 -9 157 -9 l161
0 0 -400 0 -400 320 0 320 0 0 400 0 400 161 0 c88 0 159 4 157 9 -5 14 -633
850 -638 850 -3 0 -147 -189 -320 -421z m630 -273 c0 -3 -34 -5 -75 -5 l-75 0
0 -400 0 -400 -160 0 -160 0 0 400 0 399 -76 3 -75 3 156 208 156 208 155
-205 c85 -113 154 -208 154 -211z"/>
<path d="M700 5034 c-236 -29 -408 -93 -445 -165 -13 -24 -15 -194 -15 -1209
l0 -1180 -27 0 c-38 0 -89 -33 -113 -72 -20 -32 -20 -53 -20 -1128 0 -1075 0
-1096 20 -1128 11 -18 34 -41 52 -52 33 -20 56 -20 2408 -20 2352 0 2375 0
2408 20 18 11 41 34 52 52 20 32 20 53 20 1128 0 1068 -1 1096 -20 1127 -44
72 12 67 -841 73 l-768 5 295 392 c162 216 294 395 294 398 0 3 -72 5 -160 5
l-160 0 0 400 0 400 -320 0 -320 0 0 -400 0 -400 -160 0 c-88 0 -160 -2 -160
-5 0 -4 524 -708 583 -782 7 -10 -59 -13 -327 -13 l-336 0 0 703 c0 667 -1
703 -19 730 -41 63 -133 105 -303 139 -100 20 -143 23 -375 23 l-263 0 0 385
c0 358 -1 387 -19 413 -40 62 -132 104 -297 138 -93 19 -147 22 -369 24 -143
2 -276 1 -295 -1z m585 -179 c109 -19 205 -45 205 -55 0 -10 -96 -36 -210 -57
-134 -24 -506 -24 -640 0 -119 22 -200 45 -200 57 0 18 161 55 302 70 120 13
437 4 543 -15z m-750 -255 c289 -61 709 -50 963 26 l22 6 0 -150 0 -150 -47
-20 c-223 -94 -816 -92 -1035 5 l-38 16 0 150 0 149 23 -6 c12 -4 63 -16 112
-26z m0 -480 c289 -61 708 -50 963 26 22 6 23 5 20 -46 l-3 -53 -75 -19 c-95
-24 -188 -75 -217 -118 -17 -24 -23 -48 -23 -85 l0 -52 -77 -7 c-231 -19 -549
12 -675 66 l-48 20 0 150 0 150 23 -6 c12 -4 63 -16 112 -26z m1580 -210 c162
-15 325 -50 325 -70 0 -23 -167 -56 -362 -72 -125 -9 -191 -9 -315 0 -196 16
-363 49 -363 72 0 11 76 34 165 50 151 28 373 36 550 20z m1405 -390 l0 -400
76 0 c42 0 74 -4 72 -9 -5 -14 -303 -410 -308 -410 -3 0 -74 93 -158 207
l-153 207 75 3 76 3 0 399 0 400 160 0 160 0 0 -400z m-2985 120 c138 -30 320
-43 501 -38 l164 5 0 -157 0 -158 -117 -7 c-234 -15 -521 17 -645 72 l-38 16
0 150 0 149 23 -6 c12 -4 63 -16 112 -26z m960 0 c289 -61 709 -50 963 26 l22
6 0 -150 0 -150 -47 -20 c-93 -40 -322 -72 -513 -72 -191 0 -420 32 -512 72
l-48 20 0 150 0 150 23 -6 c12 -4 63 -16 112 -26z m-960 -480 c139 -30 321
-43 502 -37 l163 5 0 -158 0 -157 -77 -7 c-231 -19 -549 12 -675 66 l-48 20 0
150 0 150 23 -6 c12 -4 63 -16 112 -26z m960 0 c289 -61 709 -50 963 26 l22 6
0 -150 0 -150 -47 -20 c-223 -94 -816 -92 -1035 5 l-38 16 0 150 0 149 23 -6
c12 -4 63 -16 112 -26z m-960 -480 c138 -30 320 -43 501 -38 l164 5 0 -83 0
-84 -400 0 -400 0 0 116 c0 116 0 116 23 110 12 -4 63 -16 112 -26z m960 0
c289 -61 709 -50 963 26 22 6 22 6 22 -110 l0 -116 -560 0 -560 0 0 116 c0
116 0 116 23 110 12 -4 63 -16 112 -26z m3385 -1400 l0 -1040 -2320 0 -2320 0
0 1040 0 1040 2320 0 2320 0 0 -1040z"/>
<path d="M400 1280 l0 -880 2160 0 2160 0 0 880 0 880 -2160 0 -2160 0 0 -880z
m470 708 c0 -29 -62 -140 -101 -182 -39 -43 -163 -116 -195 -116 -11 0 -14 31
-14 155 l0 155 155 0 c117 0 155 -3 155 -12z m1118 -41 c-35 -29 -85 -80 -111
-113 -301 -370 -252 -914 111 -1221 l62 -53 -509 0 -509 0 -6 45 c-12 76 -81
201 -151 270 -69 70 -194 139 -270 151 l-45 6 0 248 0 248 45 6 c76 12 201 81
270 151 70 69 139 194 151 270 l6 45 509 0 509 0 -62 -53z m710 37 c393 -81
646 -457 566 -842 -81 -392 -457 -645 -842 -566 -392 81 -645 457 -566 842 80
392 458 645 842 566z m1396 -29 c12 -76 81 -201 151 -270 69 -70 194 -139 270
-151 l45 -6 0 -248 0 -248 -45 -6 c-76 -12 -201 -81 -270 -151 -70 -69 -139
-194 -151 -270 l-6 -45 -510 0 -509 0 58 49 c196 163 313 413 313 671 0 258
-117 508 -313 671 l-58 49 509 0 510 0 6 -45z m466 -110 c0 -117 -3 -155 -12
-155 -29 0 -140 62 -182 101 -43 39 -116 163 -116 195 0 11 31 14 155 14 l155
0 0 -155z m-3903 -1010 c42 -21 88 -54 112 -81 39 -42 101 -153 101 -181 0
-10 -38 -13 -155 -13 l-155 0 0 155 c0 124 3 155 14 155 7 0 45 -16 83 -35z
m3903 -120 l0 -155 -155 0 c-117 0 -155 3 -155 13 0 28 62 139 101 181 39 43
163 116 195 116 11 0 14 -31 14 -155z"/>
<path d="M2480 1760 l0 -80 -80 0 -80 0 0 -137 c0 -165 9 -201 63 -260 48 -53
79 -70 138 -79 96 -13 119 -37 119 -119 l0 -45 -45 0 c-84 0 -115 31 -115 115
l0 45 -80 0 -80 0 0 -56 c0 -31 5 -74 12 -96 14 -48 76 -121 118 -138 l30 -12
0 -89 0 -89 80 0 80 0 0 80 0 80 80 0 80 0 0 138 c0 164 -9 200 -63 259 -48
53 -79 70 -138 79 -96 13 -119 37 -119 119 l0 45 45 0 c84 0 115 -31 115 -115
l0 -45 80 0 80 0 0 56 c0 88 -18 133 -77 192 -28 28 -59 52 -67 52 -13 0 -16
15 -16 90 l0 90 -80 0 -80 0 0 -80z"/>
</g>
</svg>
