<?xml version="1.0" standalone="no"?>
<!DOCTYPE svg PUBLIC "-//W3C//DTD SVG 20010904//EN"
 "http://www.w3.org/TR/2001/REC-SVG-20010904/DTD/svg10.dtd">
<svg version="1.0" xmlns="http://www.w3.org/2000/svg"
 width="225.000000pt" height="225.000000pt" viewBox="0 0 225.000000 225.000000"
 preserveAspectRatio="xMidYMid meet">

<g transform="translate(0.000000,225.000000) scale(0.100000,-0.100000)"
fill="#000000" stroke="none">
<path d="M1107 1945 c-12 -26 -23 -35 -41 -35 -13 0 -32 -3 -41 -6 -13 -6 -11
-11 15 -33 30 -25 31 -28 22 -68 l-10 -42 39 19 38 20 37 -22 37 -22 -7 45
c-6 40 -4 48 19 69 27 26 20 40 -23 40 -16 0 -27 10 -39 35 -9 19 -20 35 -23
35 -3 0 -14 -16 -23 -35z"/>
<path d="M790 1862 c0 -24 -6 -35 -26 -45 l-26 -14 31 -13 c18 -7 31 -20 31
-30 0 -28 12 -31 36 -9 15 14 31 20 44 16 23 -6 25 1 5 27 -10 13 -11 24 -5
37 15 27 13 30 -19 27 -18 -1 -38 6 -50 16 -21 19 -21 19 -21 -12z"/>
<path d="M1426 1872 c-14 -16 -26 -20 -48 -15 -28 5 -28 5 -17 -19 8 -19 8
-31 0 -46 -16 -30 -14 -35 13 -28 16 4 29 0 41 -14 20 -22 35 -18 35 10 0 11
12 25 26 33 l26 14 -25 16 c-14 9 -27 28 -29 43 l-3 26 -19 -20z"/>
<path d="M605 1623 c-78 -41 -115 -89 -115 -146 0 -35 2 -38 23 -32 68 21 115
79 132 163 7 36 3 38 -40 15z"/>
<path d="M1605 1608 c17 -84 64 -142 133 -163 20 -6 22 -3 22 33 0 55 -37 102
-112 142 -49 26 -51 26 -43 -12z"/>
<path d="M393 1554 c-35 -82 -38 -117 -13 -169 12 -25 26 -45 30 -45 5 0 18
16 30 36 27 43 24 114 -6 183 l-20 45 -21 -50z"/>
<path d="M1812 1547 c-28 -73 -28 -130 -1 -173 11 -19 24 -34 28 -34 4 0 15
15 26 32 26 45 24 111 -6 178 l-26 55 -21 -58z"/>
<path d="M980 1455 l0 -65 -75 0 -75 0 0 -40 c0 -39 1 -40 34 -40 63 0 66 -10
66 -214 0 -199 -2 -206 -56 -206 -29 0 -32 -4 -39 -36 -3 -20 -4 -39 0 -42 3
-4 37 -8 76 -10 l69 -4 0 -64 0 -64 40 0 40 0 0 65 0 65 35 0 35 0 0 -65 0
-65 35 0 35 0 0 64 0 64 50 7 c62 9 128 42 154 77 27 38 34 134 12 177 -9 17
-32 39 -51 48 l-34 16 24 29 c30 36 39 69 31 110 -13 66 -57 102 -139 116
l-42 7 -3 68 -3 67 -34 0 -35 0 0 -65 0 -65 -35 0 -35 0 0 65 0 65 -40 0 -40
0 0 -65z m234 -178 c20 -13 26 -26 26 -52 0 -18 -7 -40 -15 -49 -20 -19 -79
-36 -127 -36 l-38 0 0 81 0 81 64 -4 c37 -2 74 -11 90 -21z m-24 -218 c118
-27 121 -129 5 -158 -24 -6 -64 -11 -89 -11 l-46 0 0 83 c0 46 3 87 7 90 9 10
71 8 123 -4z"/>
<path d="M541 1422 c-61 -31 -89 -62 -101 -115 -7 -33 -6 -37 11 -37 31 0 82
25 107 52 30 33 67 128 49 128 -6 0 -36 -13 -66 -28z"/>
<path d="M1650 1399 c10 -29 29 -63 42 -77 25 -27 76 -52 107 -52 17 0 18 4
11 37 -12 53 -40 84 -101 115 -77 39 -82 37 -59 -23z"/>
<path d="M295 1343 c-8 -55 -8 -57 -6 -101 1 -22 12 -44 35 -70 l35 -37 16 39
c22 52 13 106 -27 168 -16 27 -34 48 -38 48 -5 0 -12 -21 -15 -47z"/>
<path d="M1908 1353 c-27 -42 -48 -96 -48 -125 0 -10 7 -35 15 -55 l16 -37 31
31 c24 24 32 42 36 82 5 56 -5 141 -17 141 -5 0 -19 -17 -33 -37z"/>
<path d="M468 1234 c-65 -49 -101 -128 -82 -178 10 -26 80 16 103 62 16 32 40
153 30 152 -2 0 -25 -16 -51 -36z"/>
<path d="M1734 1219 c11 -85 38 -134 85 -158 l41 -21 6 26 c14 56 -28 129
-109 186 l-30 22 7 -55z"/>
<path d="M235 1123 c10 -68 28 -105 64 -136 47 -39 71 -36 71 9 0 53 -27 101
-78 140 -25 19 -49 34 -55 34 -5 0 -6 -19 -2 -47z"/>
<path d="M1958 1136 c-51 -39 -78 -87 -78 -140 0 -29 4 -36 19 -36 27 0 81 48
96 85 18 42 30 125 18 125 -6 0 -30 -15 -55 -34z"/>
<path d="M475 1058 c-59 -69 -77 -148 -46 -197 12 -19 44 0 70 43 16 25 21 50
21 97 0 87 -10 99 -45 57z"/>
<path d="M1736 1075 c-14 -39 -6 -138 15 -171 18 -30 46 -54 63 -54 11 0 26
70 20 96 -8 37 -46 104 -72 127 -18 16 -20 16 -26 2z"/>
<path d="M210 964 c0 -14 36 -73 59 -97 34 -37 73 -57 111 -57 22 0 30 5 30
18 0 25 -35 78 -65 98 -25 16 -135 47 -135 38z"/>
<path d="M1983 955 c-64 -15 -98 -36 -123 -78 -29 -47 -26 -67 10 -67 38 0 77
20 111 57 26 27 64 92 57 97 -2 2 -26 -2 -55 -9z"/>
<path d="M509 859 c-29 -45 -34 -63 -34 -111 0 -38 5 -62 15 -73 14 -14 19
-12 45 16 28 28 30 36 30 107 0 42 -5 85 -11 95 -10 17 -15 13 -45 -34z"/>
<path d="M1690 870 c-19 -71 -9 -145 25 -180 25 -26 31 -28 43 -16 8 8 17 34
19 59 6 47 -14 103 -56 157 l-19 24 -12 -44z"/>
<path d="M245 789 c48 -81 102 -119 169 -119 52 0 55 7 26 55 -25 41 -74 65
-147 72 -47 5 -55 4 -48 -8z"/>
<path d="M600 744 c-25 -69 -24 -134 5 -178 l19 -28 23 26 c32 38 39 89 20
150 -9 29 -23 60 -30 71 -13 17 -16 14 -37 -41z"/>
<path d="M1600 757 c-12 -27 -24 -63 -27 -81 -6 -40 11 -97 36 -120 17 -16 19
-15 37 11 27 39 25 134 -2 193 l-22 45 -22 -48z"/>
<path d="M1915 793 c-46 -11 -86 -37 -105 -68 -29 -48 -26 -55 26 -55 54 0
100 25 136 73 43 56 43 57 1 56 -21 -1 -47 -3 -58 -6z"/>
<path d="M710 625 c0 -36 6 -80 14 -99 16 -39 65 -81 79 -67 18 18 20 96 3
129 -19 38 -74 102 -87 102 -5 0 -9 -29 -9 -65z"/>
<path d="M1491 655 c-49 -56 -64 -93 -58 -143 2 -24 9 -48 14 -53 14 -14 63
28 79 67 15 37 19 164 5 164 -5 0 -23 -16 -40 -35z"/>
<path d="M340 631 c0 -16 73 -70 117 -87 42 -16 106 -13 118 5 7 13 -33 59
-65 76 -32 17 -170 21 -170 6z"/>
<path d="M1734 621 c-35 -21 -66 -60 -58 -72 11 -18 76 -21 117 -5 44 17 117
71 117 87 0 5 -33 9 -72 9 -54 0 -81 -5 -104 -19z"/>
<path d="M856 528 c43 -86 94 -128 155 -128 29 0 31 2 25 28 -4 15 -15 38 -24
52 -21 29 -115 80 -149 80 -23 0 -23 0 -7 -32z"/>
<path d="M1338 546 c-73 -26 -109 -61 -123 -118 -7 -26 -5 -28 24 -28 61 0
112 42 155 128 16 30 15 32 -1 32 -10 -1 -35 -7 -55 -14z"/>
<path d="M515 503 c-47 -14 -49 -16 -30 -30 63 -48 155 -66 210 -41 31 14 31
19 3 46 -47 44 -99 51 -183 25z"/>
<path d="M1600 509 c-27 -11 -70 -48 -70 -60 0 -3 14 -12 30 -19 45 -18 120
-8 176 25 l49 29 -34 13 c-46 19 -121 25 -151 12z"/>
<path d="M715 406 c-27 -13 -59 -31 -70 -39 -19 -14 -17 -16 25 -27 68 -18
154 -9 185 20 33 31 32 38 -10 56 -47 19 -72 18 -130 -10z"/>
<path d="M1403 415 c-40 -17 -41 -24 -8 -55 31 -29 117 -38 185 -20 42 11 44
13 25 27 -35 26 -119 63 -145 63 -14 -1 -40 -7 -57 -15z"/>
<path d="M1095 380 c-12 -20 6 -50 30 -50 15 0 26 7 30 20 9 27 -1 40 -30 40
-13 0 -27 -5 -30 -10z"/>
<path d="M927 355 c-40 -14 -107 -61 -107 -75 0 -12 104 -24 142 -16 33 6 98
50 98 66 0 27 -83 42 -133 25z"/>
<path d="M1233 359 c-18 -5 -35 -14 -39 -21 -11 -17 50 -66 91 -74 42 -8 145
4 145 16 0 10 -53 52 -85 67 -33 16 -78 21 -112 12z"/>
</g>
</svg>
